<svg xmlns="http://www.w3.org/2000/svg" style="display:none">
  <symbol id="icon-code-bracket" viewBox="0 0 24 24" fill="none" stroke="currentColor" stroke-width="1.5"><path d="M17.25 6.75L22.5 12L17.25 17.25M6.75 17.25L1.5 12L6.75 6.75M14.25 3.75L9.75 20.25" stroke="currentColor" stroke-width="1.5" stroke-linecap="round" stroke-linejoin="round"/></symbol>
  <symbol id="icon-cpu-chip" viewBox="0 0 24 24" fill="none" stroke="currentColor" stroke-width="1.5"><path d="M8.25 3V4.5M4.5 8.25H3M21 8.25H19.5M4.5 12H3M21 12H19.5M4.5 15.75H3M21 15.75H19.5M8.25 19.5V21M12 3V4.5M12 19.5V21M15.75 3V4.5M15.75 19.5V21M6.75 19.5H17.25C18.4926 19.5 19.5 18.4926 19.5 17.25V6.75C19.5 5.50736 18.4926 4.5 17.25 4.5H6.75C5.50736 4.5 4.5 5.50736 4.5 6.75V17.25C4.5 18.4926 5.50736 19.5 6.75 19.5ZM7.5 7.5H16.5V16.5H7.5V7.5Z" stroke="currentColor" stroke-width="1.5" stroke-linecap="round" stroke-linejoin="round"/></symbol>
  <symbol id="icon-heart" viewBox="0 0 24 24" fill="none" stroke="currentColor" stroke-width="1.5"><path d="M21 8.25C21 5.76472 18.9013 3.75 16.3125 3.75C14.3769 3.75 12.7153 4.87628 12 6.48342C11.2847 4.87628 9.62312 3.75 7.6875 3.75C5.09867 3.75 3 5.76472 3 8.25C3 15.4706 12 20.25 12 20.25C12 20.25 21 15.4706 21 8.25Z" stroke="currentColor" stroke-width="1.5" stroke-linecap="round" stroke-linejoin="round"/></symbol>
  <symbol id="icon-home" viewBox="0 0 24 24" fill="none" stroke="currentColor" stroke-width="1.5"><path d="M2.25 12L11.2045 3.04549C11.6438 2.60615 12.3562 2.60615 12.7955 3.04549L21.75 12M4.5 9.75V19.875C4.5 20.4963 5.00368 21 5.625 21H9.75V16.125C9.75 15.5037 10.2537 15 10.875 15H13.125C13.7463 15 14.25 15.5037 14.25 16.125V21H18.375C18.9963 21 19.5 20.4963 19.5 19.875V9.75M8.25 21H16.5" stroke="currentColor" stroke-width="1.5" stroke-linecap="round" stroke-linejoin="round"/></symbol>
</svg>
