<svg xmlns="http://www.w3.org/2000/svg" style="display:none">
  <symbol id="icon-claude" viewBox="0 0 24 24"><title>Claude</title><path d="m4.7144 15.9555 4.7174-2.6471.079-.2307-.079-.1275h-.2307l-.7893-.0486-2.6956-.0729-2.3375-.0971-2.2646-.1214-.5707-.1215-.5343-.7042.0546-.3522.4797-.3218.686.0608 1.5179.1032 2.2767.1578 1.6514.0972 2.4468.255h.3886l.0546-.1579-.1336-.0971-.1032-.0972L6.973 9.8356l-2.55-1.6879-1.3356-.9714-.7225-.4918-.3643-.4614-.1578-1.0078.6557-.7225.8803.0607.2246.0607.8925.686 1.9064 1.4754 2.4893 1.8336.3643.3035.1457-.1032.0182-.0728-.164-.2733-1.3539-2.4467-1.445-2.4893-.6435-1.032-.17-.6194c-.0607-.255-.1032-.4674-.1032-.7285L6.287.1335 6.6997 0l.9957.1336.419.3642.6192 1.4147 1.0018 2.2282 1.5543 3.0296.4553.8985.2429.8318.091.255h.1579v-.1457l.1275-1.706.2368-2.0947.2307-2.6957.0789-.7589.3764-.9107.7468-.4918.5828.2793.4797.686-.0668.4433-.2853 1.8517-.5586 2.9021-.3643 1.9429h.2125l.2429-.2429.9835-1.3053 1.6514-2.0643.7286-.8196.85-.9046.5464-.4311h1.0321l.759 1.1293-.34 1.1657-1.0625 1.3478-.8804 1.1414-1.2628 1.7-.7893 1.36.0729.1093.1882-.0183 2.8535-.607 1.5421-.2794 1.8396-.3157.8318.3886.091.3946-.3278.8075-1.967.4857-2.3072.4614-3.4364.8136-.0425.0304.0486.0607 1.5482.1457.6618.0364h1.621l3.0175.2247.7892.522.4736.6376-.079.4857-1.2142.6193-1.6393-.3886-3.825-.9107-1.3113-.3279h-.1822v.1093l1.0929 1.0686 2.0035 1.8092 2.5075 2.3314.1275.5768-.3218.4554-.34-.0486-2.2039-1.6575-.85-.7468-1.9246-1.621h-.1275v.17l.4432.6496 2.3436 3.5214.1214 1.0807-.17.3521-.6071.2125-.6679-.1214-1.3721-1.9246L14.38 17.959l-1.1414-1.9428-.1397.079-.674 7.2552-.3156.3703-.7286.2793-.6071-.4614-.3218-.7468.3218-1.4753.3886-1.9246.3157-1.53.2853-1.9004.17-.6314-.0121-.0425-.1397.0182-1.4328 1.9672-2.1796 2.9446-1.7243 1.8456-.4128.164-.7164-.3704.0667-.6618.4008-.5889 2.386-3.0357 1.4389-1.882.929-1.0868-.0062-.1579h-.0546l-6.3385 4.1164-1.1293.1457-.4857-.4554.0608-.7467.2307-.2429 1.9064-1.3114Z"/></symbol>
  <symbol id="icon-code-bracket" viewBox="0 0 24 24"><path d="M17.25 6.75L22.5 12L17.25 17.25M6.75 17.25L1.5 12L6.75 6.75M14.25 3.75L9.75 20.25" stroke="#0F172A" stroke-width="1.5" stroke-linecap="round" stroke-linejoin="round"/></symbol>
  <symbol id="icon-cpu-chip" viewBox="0 0 24 24"><path d="M8.25 3V4.5M4.5 8.25H3M21 8.25H19.5M4.5 12H3M21 12H19.5M4.5 15.75H3M21 15.75H19.5M8.25 19.5V21M12 3V4.5M12 19.5V21M15.75 3V4.5M15.75 19.5V21M6.75 19.5H17.25C18.4926 19.5 19.5 18.4926 19.5 17.25V6.75C19.5 5.50736 18.4926 4.5 17.25 4.5H6.75C5.50736 4.5 4.5 5.50736 4.5 6.75V17.25C4.5 18.4926 5.50736 19.5 6.75 19.5ZM7.5 7.5H16.5V16.5H7.5V7.5Z" stroke="#0F172A" stroke-width="1.5" stroke-linecap="round" stroke-linejoin="round"/></symbol>
  <symbol id="icon-facebook" viewBox="0 0 24 24"><title>Facebook</title><path d="M9.101 23.691v-7.98H6.627v-3.667h2.474v-1.58c0-4.085 1.848-5.978 5.858-5.978.401 0 .955.042 1.468.103a8.68 8.68 0 0 1 1.141.195v3.325a8.623 8.623 0 0 0-.653-.036 26.805 26.805 0 0 0-.733-.009c-.707 0-1.259.096-1.675.309a1.686 1.686 0 0 0-.679.622c-.258.42-.374.995-.374 1.752v1.297h3.919l-.386 2.103-.287 1.564h-3.246v8.245C19.396 23.238 24 18.179 24 12.044c0-6.627-5.373-12-12-12s-12 5.373-12 12c0 5.628 3.874 10.35 9.101 11.647Z"/></symbol>
  <symbol id="icon-github" viewBox="0 0 24 24"><title>GitHub</title><path d="M12 .297c-6.63 0-12 5.373-12 12 0 5.303 3.438 9.8 8.205 11.385.6.113.82-.258.82-.577 0-.285-.01-1.04-.015-2.04-3.338.724-4.042-1.61-4.042-1.61C4.422 18.07 3.633 17.7 3.633 17.7c-1.087-.744.084-.729.084-.729 1.205.084 1.838 1.236 1.838 1.236 1.07 1.835 2.809 1.305 3.495.998.108-.776.417-1.305.76-1.605-2.665-.3-5.466-1.332-5.466-5.93 0-1.31.465-2.38 1.235-3.22-.135-.303-.54-1.523.105-3.176 0 0 1.005-.322 3.3 1.23.96-.267 1.98-.399 3-.405 1.02.006 2.04.138 3 .405 2.28-1.552 3.285-1.23 3.285-1.23.645 1.653.24 2.873.12 3.176.765.84 1.23 1.91 1.23 3.22 0 4.61-2.805 5.625-5.475 5.92.42.36.81 1.096.81 2.22 0 1.606-.015 2.896-.015 3.286 0 .315.21.69.825.57C20.565 22.092 24 17.592 24 12.297c0-6.627-5.373-12-12-12"/></symbol>
  <symbol id="icon-heart" viewBox="0 0 24 24"><path d="M11.645 20.9107L11.6384 20.9072L11.6158 20.8949C11.5965 20.8844 11.5689 20.8693 11.5336 20.8496C11.4629 20.8101 11.3612 20.7524 11.233 20.6769C10.9765 20.5261 10.6132 20.3039 10.1785 20.015C9.31074 19.4381 8.15122 18.5901 6.9886 17.5063C4.68781 15.3615 2.25 12.1751 2.25 8.25C2.25 5.32194 4.7136 3 7.6875 3C9.43638 3 11.0023 3.79909 12 5.0516C12.9977 3.79909 14.5636 3 16.3125 3C19.2864 3 21.75 5.32194 21.75 8.25C21.75 12.1751 19.3122 15.3615 17.0114 17.5063C15.8488 18.5901 14.6893 19.4381 13.8215 20.015C13.3868 20.3039 13.0235 20.5261 12.767 20.6769C12.6388 20.7524 12.5371 20.8101 12.4664 20.8496C12.4311 20.8693 12.4035 20.8844 12.3842 20.8949L12.3616 20.9072L12.355 20.9107L12.3523 20.9121C12.1323 21.0289 11.8677 21.0289 11.6477 20.9121L11.645 20.9107Z" fill="currentColor"/></symbol>
  <symbol id="icon-home" viewBox="0 0 24 24"><path d="M11.4697 3.84099C11.7626 3.5481 12.2374 3.5481 12.5303 3.84099L21.2197 12.5303C21.5126 12.8232 21.9874 12.8232 22.2803 12.5303C22.5732 12.2374 22.5732 11.7626 22.2803 11.4697L13.591 2.78033C12.7123 1.90165 11.2877 1.90165 10.409 2.78033L1.71967 11.4697C1.42678 11.7626 1.42678 12.2374 1.71967 12.5303C2.01256 12.8232 2.48744 12.8232 2.78033 12.5303L11.4697 3.84099Z" fill="currentColor"/> <path d="M12 5.43198L20.159 13.591C20.1887 13.6207 20.2191 13.6494 20.25 13.6771V19.875C20.25 20.9105 19.4105 21.75 18.375 21.75H15C14.5858 21.75 14.25 21.4142 14.25 21V16.5C14.25 16.0858 13.9142 15.75 13.5 15.75H10.5C10.0858 15.75 9.75 16.0858 9.75 16.5V21C9.75 21.4142 9.41421 21.75 9 21.75H5.625C4.58947 21.75 3.75 20.9105 3.75 19.875V13.6771C3.78093 13.6494 3.81127 13.6207 3.84099 13.591L12 5.43198Z" fill="currentColor"/></symbol>
  <symbol id="icon-ibm" viewBox="0 0 24 24">404: Not Found</symbol>
  <symbol id="icon-instagram" viewBox="0 0 24 24"><title>Instagram</title><path d="M7.0301.084c-1.2768.0602-2.1487.264-2.911.5634-.7888.3075-1.4575.72-2.1228 1.3877-.6652.6677-1.075 1.3368-1.3802 2.127-.2954.7638-.4956 1.6365-.552 2.914-.0564 1.2775-.0689 1.6882-.0626 4.947.0062 3.2586.0206 3.6671.0825 4.9473.061 1.2765.264 2.1482.5635 2.9107.308.7889.72 1.4573 1.388 2.1228.6679.6655 1.3365 1.0743 2.1285 1.38.7632.295 1.6361.4961 2.9134.552 1.2773.056 1.6884.069 4.9462.0627 3.2578-.0062 3.668-.0207 4.9478-.0814 1.28-.0607 2.147-.2652 2.9098-.5633.7889-.3086 1.4578-.72 2.1228-1.3881.665-.6682 1.0745-1.3378 1.3795-2.1284.2957-.7632.4966-1.636.552-2.9124.056-1.2809.0692-1.6898.063-4.948-.0063-3.2583-.021-3.6668-.0817-4.9465-.0607-1.2797-.264-2.1487-.5633-2.9117-.3084-.7889-.72-1.4568-1.3876-2.1228C21.2982 1.33 20.628.9208 19.8378.6165 19.074.321 18.2017.1197 16.9244.0645 15.6471.0093 15.236-.005 11.977.0014 8.718.0076 8.31.0215 7.0301.0839m.1402 21.6932c-1.17-.0509-1.8053-.2453-2.2287-.408-.5606-.216-.96-.4771-1.3819-.895-.422-.4178-.6811-.8186-.9-1.378-.1644-.4234-.3624-1.058-.4171-2.228-.0595-1.2645-.072-1.6442-.079-4.848-.007-3.2037.0053-3.583.0607-4.848.05-1.169.2456-1.805.408-2.2282.216-.5613.4762-.96.895-1.3816.4188-.4217.8184-.6814 1.3783-.9003.423-.1651 1.0575-.3614 2.227-.4171 1.2655-.06 1.6447-.072 4.848-.079 3.2033-.007 3.5835.005 4.8495.0608 1.169.0508 1.8053.2445 2.228.408.5608.216.96.4754 1.3816.895.4217.4194.6816.8176.9005 1.3787.1653.4217.3617 1.056.4169 2.2263.0602 1.2655.0739 1.645.0796 4.848.0058 3.203-.0055 3.5834-.061 4.848-.051 1.17-.245 1.8055-.408 2.2294-.216.5604-.4763.96-.8954 1.3814-.419.4215-.8181.6811-1.3783.9-.4224.1649-1.0577.3617-2.2262.4174-1.2656.0595-1.6448.072-4.8493.079-3.2045.007-3.5825-.006-4.848-.0608M16.953 5.5864A1.44 1.44 0 1 0 18.39 4.144a1.44 1.44 0 0 0-1.437 1.4424M5.8385 12.012c.0067 3.4032 2.7706 6.1557 6.173 6.1493 3.4026-.0065 6.157-2.7701 6.1506-6.1733-.0065-3.4032-2.771-6.1565-6.174-6.1498-3.403.0067-6.156 2.771-6.1496 6.1738M8 12.0077a4 4 0 1 1 4.008 3.9921A3.9996 3.9996 0 0 1 8 12.0077"/></symbol>
  <symbol id="icon-jekyll" viewBox="0 0 24 24"><title>Jekyll</title><path d="M8.073 24c-.348 0-.689-.063-1.02-.189-1.375-.525-2.104-2.02-1.726-3.402l-.015-.006.09-.226L12.399 2.01c.105-.27.057-.91.006-1.267-.016-.085-.016-.161.008-.24l.008-.023.006-.015V.458l.009-.019c.108-.292.45-.439 1.008-.439.673 0 1.602.21 2.551.573.797.307 1.523.689 2.033 1.075.602.45.842.854.707 1.2l-.031.045-.016.015c-.045.061-.09.12-.15.165-.314.271-.764.735-.84.945l-7.063 18.421-.016-.006c-.494.948-1.457 1.557-2.543 1.561H8.07l.003.006zm-2.187-3.718l-.02.05c-.447 1.201.162 2.557 1.364 3.018.271.105.551.154.837.154.971 0 1.83-.585 2.188-1.5l.027-.061 6.959-18.09c.146-.39.84-1.02.979-1.14l.016-.016c.012-.015.02-.015.02-.03 0-.06-.061-.27-.557-.645-.479-.36-1.154-.72-1.904-1.005-.868-.328-1.768-.539-2.368-.539-.39 0-.524.082-.545.126v.04c.016.104.147 1.035-.034 1.515l-6.962 18.12v.003zm8.95-11.507s-.964 1.109-1.843 1.509c-.88.398-1.529.293-2.32.756-.789.461-1.188 1.103-1.188 1.103L6.27 20.505c-.348.944.168 2.05 1.125 2.42.96.369 2.04-.12 2.412-1.056l5.029-13.094zM9.905 18.76c.104-.041.225 0 .266.105.042.104 0 .222-.105.264-.104.043-.225 0-.266-.104-.042-.097 0-.216.105-.265zm-1.014-1.802c-.152.068-.334 0-.397-.155-.07-.152 0-.334.154-.397.154-.07.335 0 .398.153.074.15.008.314-.155.39v.009zm.286-1.096c-.123-.288 0-.623.287-.758.285-.124.615 0 .75.285.121.289 0 .624-.285.757-.3.126-.629 0-.765-.285l.013.001zm2.426-2.258c.153-.074.335 0 .398.15.07.154 0 .336-.153.399-.155.07-.337 0-.399-.155-.074-.152 0-.334.154-.397v.003zm-1.293-1.379c.105-.042.226 0 .266.105.043.104 0 .226-.104.266-.104.042-.226 0-.265-.104-.044-.106.006-.227.103-.267zM13.681 1.14c.1-.261.993-.162 1.995.226.999.384 1.729.909 1.63 1.17-.104.264-.997.164-1.996-.221-1.005-.385-1.734-.91-1.632-1.176h.003z"/></symbol>
  <symbol id="icon-linkedin" viewBox="0 0 24 24"><title>LinkedIn</title><path d="M20.447 20.452h-3.554v-5.569c0-1.328-.027-3.037-1.852-3.037-1.853 0-2.136 1.445-2.136 2.939v5.667H9.351V9h3.414v1.561h.046c.477-.9 1.637-1.85 3.37-1.85 3.601 0 4.267 2.37 4.267 5.455v6.286zM5.337 7.433c-1.144 0-2.063-.926-2.063-2.065 0-1.138.92-2.063 2.063-2.063 1.14 0 2.064.925 2.064 2.063 0 1.139-.925 2.065-2.064 2.065zm1.782 13.019H3.555V9h3.564v11.452zM22.225 0H1.771C.792 0 0 .774 0 1.729v20.542C0 23.227.792 24 1.771 24h20.451C23.2 24 24 23.227 24 22.271V1.729C24 .774 23.2 0 22.222 0h.003z"/></symbol>
  <symbol id="icon-manageiq" viewBox="0 0 24 24"><title>ManageIQ</title><path d="M12.095.1C5.718.094.544 5.26.538 11.637v.022c0 2.069.547 4.005 1.496 5.683l2.869-2.868a7.685 7.685 0 0 1-.54-2.815c0-4.262 3.47-7.73 7.732-7.73s7.732 3.468 7.732 7.73-3.47 7.732-7.732 7.732a7.685 7.685 0 0 1-2.6-.46L6.596 21.83a11.515 11.515 0 0 0 5.499 1.388c2.316 0 4.467-.686 6.275-1.856l2.393 2.392L24 20.512l-2.349-2.349c1.262-1.852 2-4.09 2-6.505C23.66 5.269 18.452.078 12.096.101L12.095.1zm0 9.34c-1.225 0-2.214.991-2.214 2.217s.989 2.215 2.214 2.215a2.216 2.216 0 1 0 0-4.432zm-4.24 3.368C7.57 13.09.273 20.39 0 20.662L3.24 23.9l7.855-7.855-3.24-3.238v.001z"/></symbol>
  <symbol id="icon-redhat" viewBox="0 0 24 24"><title>Red Hat</title><path d="M16.009 13.386c1.577 0 3.86-.326 3.86-2.202a1.765 1.765 0 0 0-.04-.431l-.94-4.08c-.216-.898-.406-1.305-1.982-2.093-1.223-.625-3.888-1.658-4.676-1.658-.733 0-.947.946-1.822.946-.842 0-1.467-.706-2.255-.706-.757 0-1.25.515-1.63 1.576 0 0-1.06 2.99-1.197 3.424a.81.81 0 0 0-.028.245c0 1.162 4.577 4.974 10.71 4.974m4.101-1.435c.218 1.032.218 1.14.218 1.277 0 1.765-1.984 2.745-4.593 2.745-5.895.004-11.06-3.451-11.06-5.734a2.326 2.326 0 0 1 .19-.925C2.746 9.415 0 9.794 0 12.217c0 3.969 9.405 8.861 16.851 8.861 5.71 0 7.149-2.582 7.149-4.62 0-1.605-1.387-3.425-3.887-4.512"/></symbol>
  <symbol id="icon-ruby" viewBox="0 0 24 24"><title>Ruby</title><path d="M20.156.083c3.033.525 3.893 2.598 3.829 4.77L24 4.822 22.635 22.71 4.89 23.926h.016C3.433 23.864.15 23.729 0 19.139l1.645-3 2.819 6.586.503 1.172 2.805-9.144-.03.007.016-.03 9.255 2.956-1.396-5.431-.99-3.9 8.82-.569-.615-.51L16.5 2.114 20.159.073l-.003.01zM0 19.089zM5.13 5.073c3.561-3.533 8.157-5.621 9.922-3.84 1.762 1.777-.105 6.105-3.673 9.636-3.563 3.532-8.103 5.734-9.864 3.957-1.766-1.777.045-6.217 3.612-9.75l.003-.003z"/></symbol>
  <symbol id="icon-swift" viewBox="0 0 24 24"><title>Swift</title><path d="M7.508 0c-.287 0-.573 0-.86.002-.241.002-.483.003-.724.01-.132.003-.263.009-.395.015A9.154 9.154 0 0 0 4.348.15 5.492 5.492 0 0 0 2.85.645 5.04 5.04 0 0 0 .645 2.848c-.245.48-.4.972-.495 1.5-.093.52-.122 1.05-.136 1.576a35.2 35.2 0 0 0-.012.724C0 6.935 0 7.221 0 7.508v8.984c0 .287 0 .575.002.862.002.24.005.481.012.722.014.526.043 1.057.136 1.576.095.528.25 1.02.495 1.5a5.03 5.03 0 0 0 2.205 2.203c.48.244.97.4 1.498.495.52.093 1.05.124 1.576.138.241.007.483.009.724.01.287.002.573.002.86.002h8.984c.287 0 .573 0 .86-.002.241-.001.483-.003.724-.01a10.523 10.523 0 0 0 1.578-.138 5.322 5.322 0 0 0 1.498-.495 5.035 5.035 0 0 0 2.203-2.203c.245-.48.4-.972.495-1.5.093-.52.124-1.05.138-1.576.007-.241.009-.481.01-.722.002-.287.002-.575.002-.862V7.508c0-.287 0-.573-.002-.86a33.662 33.662 0 0 0-.01-.724 10.5 10.5 0 0 0-.138-1.576 5.328 5.328 0 0 0-.495-1.5A5.039 5.039 0 0 0 21.152.645 5.32 5.32 0 0 0 19.654.15a10.493 10.493 0 0 0-1.578-.138 34.98 34.98 0 0 0-.722-.01C17.067 0 16.779 0 16.492 0H7.508zm6.035 3.41c4.114 2.47 6.545 7.162 5.549 11.131-.024.093-.05.181-.076.272l.002.001c2.062 2.538 1.5 5.258 1.236 4.745-1.072-2.086-3.066-1.568-4.088-1.043a6.803 6.803 0 0 1-.281.158l-.02.012-.002.002c-2.115 1.123-4.957 1.205-7.812-.022a12.568 12.568 0 0 1-5.64-4.838c.649.48 1.35.902 2.097 1.252 3.019 1.414 6.051 1.311 8.197-.002C9.651 12.73 7.101 9.67 5.146 7.191a10.628 10.628 0 0 1-1.005-1.384c2.34 2.142 6.038 4.83 7.365 5.576C8.69 8.408 6.208 4.743 6.324 4.86c4.436 4.47 8.528 6.996 8.528 6.996.154.085.27.154.36.213.085-.215.16-.437.224-.668.708-2.588-.09-5.548-1.893-7.992z"/></symbol>
  <symbol id="icon-x" viewBox="0 0 24 24"><title>X</title><path d="M14.234 10.162 22.977 0h-2.072l-7.591 8.824L7.251 0H.258l9.168 13.343L.258 24H2.33l8.016-9.318L16.749 24h6.993zm-2.837 3.299-.929-1.329L3.076 1.56h3.182l5.965 8.532.929 1.329 7.754 11.09h-3.182z"/></symbol>
</svg>
